<svg xmlns="http://www.w3.org/2000/svg" version="1.1" xmlns:xlink="http://www.w3.org/1999/xlink" xmlns:svgjs="http://svgjs.dev/svgjs" width="2000" height="666" viewBox="0 0 2000 666"><g transform="matrix(1,0,0,1,-1.212106022408193,-0.9233953638710659)"><svg viewBox="0 0 396 132" data-background-color="#444444" preserveAspectRatio="xMidYMid meet" height="666" width="2000" xmlns="http://www.w3.org/2000/svg" xmlns:xlink="http://www.w3.org/1999/xlink"><g id="tight-bounds" transform="matrix(1,0,0,1,0.23999699243682926,0.1830152973438146)"><svg viewBox="0 0 395.52 131.63396940531237" height="131.63396940531237" width="395.52"><g><svg viewBox="0 0 644.4726933391732 214.48851839999998" height="131.63396940531237" width="395.52"><g transform="matrix(1,0,0,1,248.95269333917327,34.25044589586639)"><svg viewBox="0 0 395.52 145.9876266082672" height="145.9876266082672" width="395.52"><g><svg viewBox="0 0 395.52 145.9876266082672" height="145.9876266082672" width="395.52"><g><svg viewBox="0 0 395.52 145.9876266082672" height="145.9876266082672" width="395.52"><g transform="matrix(1,0,0,1,0,0)"><svg width="395.52" viewBox="4 -39.95000076293945 109.58999633789062 40.45000076293945" height="145.9876266082672" data-palette-color="#ffffff"><path d="M27.6-0.6L18.15-16.45 14.3-16.45Q13.45-16.45 12.98-17.13 12.5-17.8 12.5-18.95L12.5-18.95Q12.5-21.5 14.6-21.5L14.6-21.5 20.45-21.5Q22.3-21.5 23.05-22.55 23.8-23.6 23.8-24.85L23.8-24.85 23.8-31.3Q23.8-32.55 23.05-33.6 22.3-34.65 20.45-34.65L20.45-34.65 9.9-34.65 9.9-2.05Q9.9 0.35 6.95 0.35L6.95 0.35Q4 0.35 4-2.05L4-2.05 4-36.7Q4-38.5 4.93-39.1 5.85-39.7 7.15-39.7L7.15-39.7 21.7-39.7Q23-39.7 24.4-39.15 25.8-38.6 27.1-37.75L27.1-37.75 27.05-37.75Q28.35-36.8 29.05-35.27 29.75-33.75 29.75-31.75L29.75-31.75 29.75-24.45Q29.75-20.4 27.05-18.4L27.05-18.4Q26.5-18 25.88-17.65 25.25-17.3 24.6-16.95L24.6-16.95 32.6-3.75Q32.75-3.5 32.9-3.1 33.05-2.7 33.05-2.45L33.05-2.45Q33.05-1.25 31.35-0.15L31.35-0.15 31.35-0.2Q30.2 0.5 29.4 0.5L29.4 0.5Q28.25 0.5 27.55-0.65L27.55-0.65 27.6-0.6ZM66.85-11.25L73.3-38.05 73.25-38Q73.55-39.1 74.42-39.6 75.3-40.1 76.75-39.85L76.75-39.85Q78.2-39.6 78.82-38.95 79.45-38.3 79.1-37.15L79.1-37.15 70.1-1.3 70.1-1.35Q69.85-0.5 68.97-0.05 68.1 0.4 67.15 0.4L67.15 0.4Q66.05 0.4 65.07 0.08 64.1-0.25 63.85-1.25L63.85-1.25 63.9-1.2 57.75-25.6 56.4-25.6 50.3-1.25Q50.05-0.4 49.05 0 48.05 0.4 47 0.4L47 0.4Q45.7 0.4 44.92 0.03 44.15-0.35 43.9-1.3L43.9-1.3 43.95-1.25 34.95-37.15Q34.7-38.15 35.4-38.88 36.1-39.6 37.4-39.85L37.4-39.85Q40.2-40.3 40.8-38L40.8-38 40.75-38.05 43-29Q43.45-27.2 43.9-25.33 44.35-23.45 44.9-21.33 45.45-19.2 46.1-16.7 46.75-14.2 47.55-11.1L47.55-11.1 53.95-38.1Q54.2-39.2 55.1-39.55 56-39.9 57.1-39.9L57.1-39.9Q58.1-39.9 59.05-39.53 60-39.15 60.25-38L60.25-38 66.85-11.25ZM107.8-1.2L96.8-34.8 85.85-1.2 85.85-1.25Q85.55-0.5 85.02-0.03 84.5 0.45 83.75 0.45L83.75 0.45Q83.35 0.45 82.97 0.38 82.6 0.3 82.2 0.2L82.2 0.2 82.25 0.2Q79.4-0.7 80.15-3L80.15-3 91.55-37.65Q91.8-38.45 92.42-39 93.05-39.55 93.9-39.65L93.9-39.65Q94.75-39.8 95.55-39.88 96.35-39.95 96.8-39.95L96.8-39.95Q97.25-39.95 98.05-39.88 98.85-39.8 99.7-39.7L99.7-39.7Q100.4-39.6 101.07-38.95 101.75-38.3 102.1-37.65L102.1-37.65Q104.9-29.05 107.77-20.33 110.65-11.6 113.45-3L113.45-3Q114.15-0.7 111.35 0.2L111.35 0.2Q110.95 0.3 110.62 0.38 110.3 0.45 109.9 0.45L109.9 0.45Q109.2 0.45 108.62-0.03 108.05-0.5 107.8-1.25L107.8-1.25 107.8-1.2ZM100.55-12L100.55-12Q100.55-10.4 99.42-9.28 98.3-8.15 96.7-8.15L96.7-8.15Q95.1-8.15 94-9.28 92.9-10.4 92.9-12L92.9-12Q92.9-13.6 94-14.73 95.1-15.85 96.7-15.85L96.7-15.85Q98.3-15.85 99.42-14.73 100.55-13.6 100.55-12Z" opacity="1" transform="matrix(1,0,0,1,0,0)" fill="#ffffff" class="undefined-text-0" data-fill-palette-color="primary" id="text-0"></path></svg></g></svg></g></svg></g></svg></g><g><svg viewBox="0 0 214.48851839999998 214.48851839999998" height="214.48851839999998" width="214.48851839999998"><g><svg></svg></g><g id="icon-0"><svg viewBox="0 0 214.48851839999998 214.48851839999998" height="214.48851839999998" width="214.48851839999998"><g><rect width="195.02567136" height="195.02567136" x="9.731423519999993" y="9.731423519999993" fill="#00d1cd" data-fill-palette-color="accent"></rect><rect width="195.02567136" height="195.02567136" x="19.462847039999993" y="-5.329070518200751e-15" fill="#00d1cd" opacity="0.5" data-fill-palette-color="accent"></rect></g><g transform="matrix(1,0,0,1,27.80406719999999,32.88700479954069)"><svg viewBox="0 0 158.880384 148.7145088009186" height="148.7145088009186" width="158.880384"><g><svg xmlns="http://www.w3.org/2000/svg" xmlns:xlink="http://www.w3.org/1999/xlink" version="1.1" x="0" y="0" viewBox="1.9434847831726074 3.8637754917144775 60.116764068603516 56.270225524902344" enable-background="new 0 0 64 64" xml:space="preserve" height="148.7145088009186" width="158.880384" class="icon-s-0" data-fill-palette-color="background" id="s-0"><g fill="#444444" data-fill-palette-color="background"><path fill="#444444" d="M60.966 27.477c-3.619-1.283-6.286-3.649-8.157-7.23-1.901-3.645-2.421-6.9-1.642-10.249 0.207-0.902-0.068-1.545-0.859-2.028-0.66-0.402-1.325-0.8-1.985-1.198L47.932 6.54c-1.003-0.601-2.138-1.278-3.217-1.943-0.804-0.504-1.558-0.301-1.926-0.097-0.165 0.093-0.343 0.212-0.512 0.351l-0.182 0.144c-0.631 0.504-1.342 1.071-2.091 1.486-0.313 0.174-0.622 0.313-0.931 0.423-2.794 0.982-5.41 1.405-7.772 1.266-3.255-0.195-6.113-1.422-8.737-3.751-0.859-0.766-1.613-0.627-2.29-0.254-1.833 1.067-3.729 2.117-5.677 3.145-0.834 0.461-1.105 1.05-0.944 2.04 0.999 5.931-1.177 10.939-6.655 15.311-0.254 0.203-0.533 0.389-0.855 0.563-0.745 0.415-1.609 0.72-2.371 0.986l-0.207 0.072c-0.22 0.076-0.411 0.161-0.576 0.254-0.648 0.356-0.94 0.872-0.944 1.672-0.008 1.278-0.034 2.599-0.055 3.768l-0.004 0.241c-0.017 0.847-0.034 1.689-0.042 2.523-0.017 0.931 0.385 1.507 1.27 1.816 3.243 1.113 5.723 3.281 7.802 6.828 2.045 3.484 2.633 7.002 1.808 10.74-0.178 0.779 0.089 1.372 0.813 1.816 2.159 1.321 3.971 2.426 5.821 3.509 0.199 0.119 0.508 0.275 0.876 0.296 0.271 0.017 0.525-0.042 0.762-0.174 0.165-0.093 0.334-0.224 0.5-0.389 0.605-0.622 1.338-1.173 2.176-1.638 2.472-1.367 5.897-1.981 9.283-1.647 3.471 0.343 6.477 1.626 8.246 3.522 0.292 0.313 0.707 0.677 1.312 0.711 0.034 0.004 0.072 0.004 0.106 0.004 0.356 0 0.732-0.119 1.194-0.373 1.003-0.571 1.994-1.122 2.65-1.486 0.66-0.364 1.655-0.91 2.705-1.482 1.308-0.72 1.249-1.647 1.058-2.375-0.665-2.51-0.157-5.736 1.393-8.856 1.52-3.061 3.827-5.609 6.324-6.993 0.842-0.466 1.697-0.796 2.561-0.982 0.377-0.085 0.914-0.271 1.177-0.864 0.102-0.224 0.152-0.478 0.165-0.809 0.068-2.303 0.093-4.623 0.114-6.786C62.071 28.286 61.711 27.744 60.966 27.477zM33.835 49.282v-7.374c2.07 0.055 4.098 0.207 6.058 0.444-0.445 1.49-0.995 2.883-1.638 4.136-0.415 0.813-0.864 1.541-1.333 2.184-0.957 1.308-2.007 2.244-3.086 2.752V49.282zM33.835 38.234V33.78h7.446c-0.076 1.71-0.254 3.374-0.538 4.961C38.521 38.466 36.214 38.293 33.835 38.234zM33.835 30.22v-4.453c2.379-0.059 4.686-0.233 6.909-0.508 0.284 1.587 0.461 3.251 0.538 4.961H33.835zM40.477 14.041c2.955 1.393 5.512 3.492 7.455 6.083-0.868 0.233-1.757 0.444-2.671 0.639-0.559 0.123-1.126 0.233-1.706 0.339-0.284-1.003-0.605-1.968-0.965-2.879C41.984 16.674 41.273 15.269 40.477 14.041zM33.835 12.576c1.079 0.508 2.129 1.444 3.086 2.756 0.47 0.639 0.919 1.367 1.333 2.18 0.643 1.253 1.194 2.642 1.638 4.136-1.96 0.237-3.988 0.389-6.058 0.445v-7.374V12.576zM22.719 33.78h7.446v4.453c-2.379 0.059-4.686 0.233-6.909 0.508C22.973 37.154 22.791 35.491 22.719 33.78zM22.719 30.22c0.072-1.71 0.254-3.374 0.538-4.961 2.222 0.275 4.53 0.449 6.909 0.508v4.453H22.719zM24.103 21.648c0.449-1.494 0.999-2.883 1.638-4.136 0.415-0.813 0.864-1.541 1.333-2.18 0.957-1.312 2.011-2.248 3.09-2.756v2.142 7.374C28.091 22.037 26.063 21.885 24.103 21.648zM23.523 14.041c-0.796 1.228-1.507 2.633-2.121 4.182-0.356 0.91-0.677 1.875-0.961 2.879-0.576-0.106-1.143-0.216-1.702-0.339-0.914-0.195-1.803-0.406-2.671-0.639C18.007 17.533 20.568 15.434 23.523 14.041zM16.538 24.057c1.003 0.241 2.032 0.457 3.086 0.652-0.305 1.748-0.504 3.594-0.58 5.512H14.71h-2.536c0.224-2.426 0.881-4.72 1.892-6.815C14.87 23.638 15.696 23.858 16.538 24.057zM14.71 33.78h4.335c0.076 1.918 0.275 3.763 0.58 5.512-1.054 0.195-2.083 0.411-3.086 0.652-0.842 0.199-1.668 0.419-2.472 0.652-1.012-2.095-1.668-4.39-1.892-6.815H14.71zM18.744 43.237c0.559-0.123 1.122-0.233 1.698-0.339 0.284 1.008 0.605 1.968 0.965 2.879 0.61 1.549 1.321 2.955 2.117 4.182-2.955-1.393-5.516-3.497-7.455-6.083C16.936 43.644 17.829 43.432 18.744 43.237zM30.165 51.424c-1.079-0.508-2.129-1.444-3.09-2.752-0.47-0.643-0.919-1.372-1.333-2.184-0.639-1.253-1.19-2.646-1.638-4.136 1.96-0.237 3.988-0.389 6.062-0.444v7.374V51.424zM40.477 49.96c0.796-1.228 1.507-2.633 2.112-4.182 0.36-0.91 0.682-1.871 0.965-2.879 0.576 0.106 1.143 0.216 1.702 0.339 0.919 0.195 1.808 0.406 2.675 0.639C45.989 46.463 43.432 48.567 40.477 49.96zM47.462 39.944c-1.003-0.241-2.032-0.457-3.086-0.652 0.305-1.748 0.5-3.594 0.58-5.512h4.335 2.536c-0.224 2.426-0.881 4.72-1.896 6.815C49.13 40.363 48.304 40.143 47.462 39.944zM49.291 30.22h-4.335c-0.08-1.918-0.275-3.763-0.58-5.512 1.054-0.195 2.083-0.411 3.086-0.652 0.842-0.199 1.668-0.419 2.468-0.652 1.016 2.095 1.672 4.39 1.896 6.815H49.291z" data-fill-palette-color="background"></path></g></svg></g></svg></g></svg></g></svg></g></svg></g><defs></defs></svg><rect width="395.52" height="131.63396940531237" fill="none" stroke="none" visibility="hidden"></rect></g></svg></g></svg>