<svg xmlns="http://www.w3.org/2000/svg" version="1.1" xmlns:xlink="http://www.w3.org/1999/xlink" xmlns:svgjs="http://svgjs.dev/svgjs" width="128" height="128" viewBox="0 0 128 128"><g transform="matrix(0.8046875,0,0,0.8046875,12.506335372881338,18.22449679099099)"><svg viewBox="0 0 59 53" data-background-color="#1b4571" preserveAspectRatio="xMidYMid meet" height="114" width="128" xmlns="http://www.w3.org/2000/svg" xmlns:xlink="http://www.w3.org/1999/xlink"><g id="tight-bounds" transform="matrix(1,0,0,1,-0.0036289999999894462,-0.05297106371000382)"><svg viewBox="0 0 59.00725799999999 53.10594212741999" height="53.10594212741999" width="59.00725799999999"><g><svg viewBox="0 0 59.00725799999999 53.10594212741999" height="53.10594212741999" width="59.00725799999999"><g><svg viewBox="0 0 59.00725799999999 53.10594212741999" height="53.10594212741999" width="59.00725799999999"><g><svg viewBox="0 0 59.00725799999999 53.10594212741999" height="53.10594212741999" width="59.00725799999999"><g><svg viewBox="0 0 59.00725799999999 53.10594212741999" height="53.10594212741999" width="59.00725799999999"><g><svg viewBox="0 0 59.00725799999999 53.10594212741999" height="53.10594212741999" width="59.00725799999999"><g><svg viewBox="0 0 59.00725799999999 53.10594212741999" height="53.10594212741999" width="59.00725799999999"><g><svg xmlns="http://www.w3.org/2000/svg" xmlns:xlink="http://www.w3.org/1999/xlink" version="1.1" x="0" y="0" viewBox="0 5.0009999999999994 100 89.999" style="enable-background:new 0 0 100 100;" xml:space="preserve" height="53.10594212741999" width="59.00725799999999" class="icon-icon-0" data-fill-palette-color="accent" id="icon-0"><g fill="#bf2051" data-fill-palette-color="accent"><path d="M95 50h-7.911c-3.345-8.262-9.37-15.152-16.997-19.592l5.348-10.697c2.533 0.72 5.371 0.085 7.363-1.908 2.928-2.928 2.929-7.679 0-10.606-2.928-2.928-7.678-2.928-10.605 0-2.602 2.601-2.89 6.638-0.871 9.56l-5.705 11.41c-9.815-4.168-21.174-4.275-31.242 0l-5.705-11.41c2.019-2.922 1.73-6.959-0.871-9.56-2.928-2.928-7.679-2.928-10.606 0-2.928 2.928-2.928 7.679 0 10.606 1.993 1.993 4.831 2.628 7.363 1.908l5.348 10.697C22.281 34.848 16.256 41.737 12.911 50H5c-2.764 0-5 2.237-5 5v10c0 2.764 2.236 5 5 5h5.335c0.225 1.7 0.555 3.367 0.973 5H30v11.145C26.997 88.448 25 91.4 25 95h50c0-3.6-1.996-6.552-5-8.855V75h18.691c0.418-1.633 0.748-3.3 0.973-5H95c2.764 0 5-2.236 5-5V55C100 52.236 97.764 50 95 50zM10 65H5V55h6.26C10.438 58.195 10 61.547 10 65zM37.5 82.24c-0.851 0.302-1.688 0.633-2.5 0.995V75h2.5V82.24zM35 65c-5.527 0-10-4.478-10-10s4.473-10 10-10 10 4.478 10 10S40.527 65 35 65zM47.5 80.104c-1.597 0.128-3.289 0.373-5 0.735V75h5V80.104zM57.5 80.839c-1.711-0.362-3.402-0.607-5-0.735V75h5V80.839zM65 83.235c-0.813-0.362-1.648-0.693-2.5-0.995V75H65V83.235zM65 65c-5.527 0-10-4.478-10-10s4.473-10 10-10 10 4.478 10 10S70.527 65 65 65zM95 65h-5c0-3.453-0.438-6.805-1.261-10H95V65zM40 55c0 2.759-2.246 4.999-5 4.999s-5-2.24-5-4.999 2.246-5 5-5S40 52.241 40 55zM70 55c0 2.759-2.246 4.999-5 4.999s-5-2.24-5-4.999 2.246-5 5-5S70 52.241 70 55z" fill="#bf2051" data-fill-palette-color="accent"></path></g></svg></g></svg></g></svg></g></svg></g></svg></g></svg></g></svg></g><defs></defs></svg><rect width="59.00725799999999" height="53.10594212741999" fill="none" stroke="none" visibility="hidden"></rect></g></svg></g></svg>